<svg xmlns="http://www.w3.org/2000/svg"><symbol id="mecha-stilts" viewBox="0 0 256 256"><path d="M126.1 18.5L221 73.3v109.6l-94.9 54.8-94.9-54.8V73.3l94.9-54.8z"/><path fill="#fff" d="M74.1 168.6a1.7 1.7 0 0 1-1.8-1.8V145H48.6a1.8 1.8 0 1 1 0-3.6h13.5v-11.7a1.7 1.7 0 0 1 1.8-1.8h7a57 57 0 0 1 55-43.7c.2-.2.4-.2.8 0 26.6.2 48.7 18.9 54.7 43.7h7a1.7 1.7 0 0 1 1.8 1.8v11.7h13.5a1.8 1.8 0 1 1 0 3.6h-23.8v21.8a1.7 1.7 0 0 1-1.8 1.8zm-8.4-37.1v9.9h120.9v-9.9zM122.5 88c-23 1.4-42.3 18.2-47.8 39.9h19.2zm-46.6 57v20h48.4v-20zm48.4-53.4l-25.9 36.3h25.9zm3.6-3.8v40.1h49.7a53.5 53.5 0 0 0-49.7-40.1zm0 57.2v20h8.1v-20zm11.7 0v20h36.7v-20z"/></symbol><symbol id="superdomes" viewBox="0 0 256 256"><path d="M129 18.4l94.9 54.8v109.6L129 237.6l-94.9-54.8V73.2L129 18.4z"/><path fill="#fff" d="M73.9 168.5a1.8 1.8 0 0 1 0-3.6h9v-11.3h-9a1.7 1.7 0 0 1-1.8-1.8v-35.5a1.7 1.7 0 0 1 1.8-1.8h11.9c.9-25.6 20-39.6 43.2-39.6s42.3 14 43.2 39.6h11.9a1.7 1.7 0 0 1 1.8 1.8v35.5a1.7 1.7 0 0 1-1.8 1.8h-9v11.3h9a1.8 1.8 0 1 1 0 3.6zm1.8-50.4V150h106.6v-31.9zm10.8 35.5v11.3H98v-11.3zm2.9-39.1h79.2c-.9-23.2-18.5-36-39.6-36s-38.7 12.8-39.6 36zm12.2 39.1v11.3h18v-11.3zm21.6 0v11.3h11.6v-11.3zm48.8-12.3h-43.9a1.8 1.8 0 1 1 0-3.6H172a1.8 1.8 0 0 1 0 3.6zm-33.6 12.3v11.3h18v-11.3zm21.6 0v11.3h11.5v-11.3z"/></symbol><symbol id="spacebubbles" viewBox="0 0 256 256"><path d="M128.1 16.5L223 71.3v109.6l-94.9 54.8-94.9-54.8V71.3l94.9-54.8z"/><path fill="#fff" d="M74.5 170.6l-4.1-6a1.8 1.8 0 0 1 .1-2.1l15-17.7h-7.4a1.7 1.7 0 0 1-1.8-1.8v-12.9a1.7 1.7 0 0 1 1.8-1.8h10.4a52.7 52.7 0 0 1-1.9-13.7 42.6 42.6 0 0 1 85.1 0 45.4 45.4 0 0 1-2 13.7h10.4a1.7 1.7 0 0 1 1.8 1.8V143a1.7 1.7 0 0 1-1.8 1.8H171l14.7 17.7a1.7 1.7 0 0 1 0 2.1l-4.1 6a2 2 0 0 1-2.4.5l-8.6-4.5H85.5l-8.7 4.5a1.9 1.9 0 0 1-2.3-.5zm27.4-25.8H90l-15.9 18.8 2.6 3.6 30.4-16.1zm-22-12.9v9.3h98.4v-9.3zm12.4-3.6h73.6a41.8 41.8 0 0 0 2.2-13.7 39 39 0 0 0-77.9 0c0 4.7.3 9.5 2.1 13.7zm17.3 25.7l-17.1 9H117zm-3.1-9.2l15.2 18.2h12.9l15.1-18.2zm40.2 9.2l-7.4 9h24.5zm19.6-9.2h-11.9l-5.4 6.3 30.6 16.1 2.5-3.5z"/></symbol></svg>